<svg xmlns="http://www.w3.org/2000/svg" viewBox="0 0 500 500"><g id="freepik--background-complete--inject-64"><rect y="382.4" width="500" height="0.25" style="fill:#ebebeb"></rect><rect x="104.54" y="389.21" width="33.12" height="0.25" style="fill:#ebebeb"></rect><rect x="171.14" y="398.37" width="40.75" height="0.25" style="fill:#ebebeb"></rect><rect x="52.46" y="395.24" width="51.08" height="0.25" style="fill:#ebebeb"></rect><rect x="356.76" y="390.89" width="93.14" height="0.25" style="fill:#ebebeb"></rect><rect x="341.53" y="390.89" width="6.33" height="0.25" style="fill:#ebebeb"></rect><rect x="277.21" y="395.11" width="42.23" height="0.25" style="fill:#ebebeb"></rect><path d="M237,337.8H43.91a5.71,5.71,0,0,1-5.7-5.71V60.66A5.71,5.71,0,0,1,43.91,55H237a5.71,5.71,0,0,1,5.71,5.71V332.09A5.71,5.71,0,0,1,237,337.8ZM43.91,55.2a5.46,5.46,0,0,0-5.45,5.46V332.09a5.46,5.46,0,0,0,5.45,5.46H237a5.47,5.47,0,0,0,5.46-5.46V60.66A5.47,5.47,0,0,0,237,55.2Z" style="fill:#ebebeb"></path><path d="M453.31,337.8H260.21a5.72,5.72,0,0,1-5.71-5.71V60.66A5.72,5.72,0,0,1,260.21,55h193.1A5.71,5.71,0,0,1,459,60.66V332.09A5.71,5.71,0,0,1,453.31,337.8ZM260.21,55.2a5.47,5.47,0,0,0-5.46,5.46V332.09a5.47,5.47,0,0,0,5.46,5.46h193.1a5.47,5.47,0,0,0,5.46-5.46V60.66a5.47,5.47,0,0,0-5.46-5.46Z" style="fill:#ebebeb"></path><rect x="89.43" y="241.44" width="201.18" height="80.75" transform="translate(471.83 91.79) rotate(90)" style="fill:#f0f0f0"></rect><rect x="160.41" y="179.94" width="59.22" height="71.88" transform="translate(405.89 25.86) rotate(90)" style="fill:#e6e6e6"></rect><rect x="160.41" y="244.47" width="59.22" height="71.88" transform="translate(470.43 90.4) rotate(90)" style="fill:#e6e6e6"></rect><rect x="160.41" y="309.01" width="59.22" height="71.88" transform="translate(534.97 154.93) rotate(90)" style="fill:#e6e6e6"></rect><rect x="182.21" y="201.74" width="59.22" height="28.27" transform="translate(427.7 4.06) rotate(90)" style="fill:#e0e0e0"></rect><rect x="182.21" y="266.28" width="59.22" height="28.27" transform="translate(492.23 68.59) rotate(90)" style="fill:#e0e0e0"></rect><rect x="165.44" y="286.37" width="19.59" height="23.66" style="fill:#fafafa"></rect><rect x="157.17" y="286.37" width="8.27" height="23.66" transform="translate(322.61 596.39) rotate(180)" style="fill:#f0f0f0"></rect><rect x="197.08" y="286.37" width="19.59" height="23.66" style="fill:#fafafa"></rect><rect x="188.81" y="286.37" width="8.27" height="23.66" transform="translate(385.9 596.39) rotate(180)" style="fill:#f0f0f0"></rect><rect x="181.61" y="262.71" width="19.59" height="23.66" style="fill:#fafafa"></rect><rect x="173.34" y="262.71" width="8.27" height="23.66" transform="translate(354.95 549.08) rotate(180)" style="fill:#f0f0f0"></rect><rect x="182.21" y="330.81" width="59.22" height="28.27" transform="translate(556.77 133.13) rotate(90)" style="fill:#e0e0e0"></rect><rect x="38.09" y="270.85" width="201.18" height="21.93" transform="translate(420.49 143.13) rotate(90)" style="fill:#f5f5f5"></rect><rect x="162.71" y="323.88" width="58.37" height="50.68" style="fill:#f0f0f0"></rect><rect x="154.07" y="323.88" width="8.64" height="50.68" transform="translate(316.79 698.43) rotate(180)" style="fill:#e0e0e0"></rect><rect x="162.71" y="194.81" width="58.37" height="50.68" style="fill:#f0f0f0"></rect><rect x="154.07" y="194.81" width="8.64" height="50.68" transform="translate(316.79 440.29) rotate(180)" style="fill:#e0e0e0"></rect><rect x="209.08" y="165.47" width="294.73" height="139.12" transform="translate(591.47 -121.41) rotate(90)" style="fill:#fafafa"></rect><rect x="139.26" y="234.77" width="294.73" height="0.52" transform="translate(521.65 -51.59) rotate(90)" style="fill:#f0f0f0"></rect><rect x="296.94" y="97.34" width="113.56" height="285.06" style="fill:#e6e6e6"></rect><rect x="299.78" y="97.34" width="116.8" height="285.06" style="fill:#f0f0f0"></rect><polygon points="408.07 242.24 408.07 245.83 411.66 242.24 408.07 242.24" style="fill:#e0e0e0"></polygon><rect x="224.17" y="189.98" width="268.03" height="99.78" transform="translate(598.05 -118.31) rotate(90)" style="fill:#fafafa"></rect><path d="M389.52,240.78a2.76,2.76,0,1,0,0,5.52H407v-5.52Z" style="fill:#f5f5f5"></path><polygon points="330.18 373.89 360.63 105.86 381.14 105.86 350.69 373.89 330.18 373.89" style="fill:#fff"></polygon><polygon points="355.1 373.89 385.55 105.86 393.55 105.86 363.1 373.89 355.1 373.89" style="fill:#fff"></polygon><rect x="273.51" y="239.33" width="268.03" height="1.08" transform="translate(647.4 -167.66) rotate(90)" style="fill:#e6e6e6"></rect><path d="M410.71,242.63H393.24a2.77,2.77,0,0,1-2.76-2.76h0a2.77,2.77,0,0,1,2.76-2.76h17.47a2.76,2.76,0,0,1,2.76,2.76h0A2.76,2.76,0,0,1,410.71,242.63Z" style="fill:#ebebeb"></path><rect x="63.97" y="121.85" width="49.09" height="78.09" style="fill:#e0e0e0"></rect><rect x="65.26" y="121.85" width="50.75" height="78.09" style="fill:#f5f5f5"></rect><rect x="57.29" y="139.77" width="66.7" height="42.25" transform="translate(-70.25 251.53) rotate(-90)" style="fill:#fff"></rect><rect x="133.28" y="84.17" width="49.09" height="78.09" style="fill:#e0e0e0"></rect><rect x="134.58" y="84.17" width="50.75" height="78.09" style="fill:#f5f5f5"></rect><rect x="126.6" y="102.09" width="66.7" height="42.25" transform="translate(36.74 283.17) rotate(-90)" style="fill:#fff"></rect></g><g id="freepik--Shadow--inject-64"><ellipse id="freepik--path--inject-64" cx="250" cy="416.24" rx="193.89" ry="11.32" style="fill:#f5f5f5"></ellipse></g><g id="freepik--Character--inject-64"><path d="M163.63,125.23c2.15,2.85,2.41,6.35.1,12-1,2.32-2.3,4.59-5.2.7s-5.39-11-1-11.63S163.63,125.23,163.63,125.23Z" style="fill:#263238"></path><polygon points="162.7 406.89 170.13 406.89 170.45 389.68 163.02 389.68 162.7 406.89" style="fill:#ffc3bd"></polygon><polygon points="107.54 393.69 114.74 395.52 122.19 379.67 114.99 377.84 107.54 393.69" style="fill:#ffc3bd"></polygon><path d="M115.7,394.76l-7.91-2.67a.63.63,0,0,0-.75.28l-3.35,5.83a1.12,1.12,0,0,0,.63,1.61c2.78.89,4.17,1.18,7.65,2.36,2.14.72,8.23,3.28,11.19,4.28s4.25-1.81,3.13-2.49c-5.05-3-8.34-6.21-9.59-8.37A1.86,1.86,0,0,0,115.7,394.76Z" style="fill:#263238"></path><path d="M170.06,406H162a.63.63,0,0,0-.62.5L160,413.14a1.12,1.12,0,0,0,1.11,1.32c2.92,0,7.15-.22,10.82-.22,4.31,0,5.21.23,10.25.23,3.05,0,3.82-3.08,2.54-3.36-5.85-1.27-7.77-1.41-12.87-4.5A3.52,3.52,0,0,0,170.06,406Z" style="fill:#263238"></path><path d="M168.13,171.91l10.14-3.25s10.48,24.26,14,25.77c4.78,2,8.52,5.41,14.65,6,.83.95,2.19,4,2.06,5.14-8.23,3.1-20.91-.19-24.4-3.42C176.59,194.81,168.13,171.91,168.13,171.91Z" style="fill:#ffc3bd"></path><path d="M165.76,166.33c-2.85,6.5,8.6,27.14,8.6,27.14l15.15-7A93.76,93.76,0,0,0,182,168.31C177.24,160,168.89,159.19,165.76,166.33Z" style="fill:#407BFF"></path><path d="M165.76,166.33c-2.85,6.5,8.6,27.14,8.6,27.14l15.15-7A93.76,93.76,0,0,0,182,168.31C177.24,160,168.89,159.19,165.76,166.33Z" style="opacity:0.5"></path><path d="M205.66,200.44l5.72-3,2.91,8.41s-1.87.83-7.21.17Z" style="fill:#ffc3bd"></path><polygon points="217.08 195.33 218.91 202.52 214.29 205.88 211.38 197.47 217.08 195.33" style="fill:#ffc3bd"></polygon><polygon points="170.45 389.69 170.29 398.56 162.85 398.56 163.02 389.69 170.45 389.69" style="opacity:0.2"></polygon><polygon points="114.98 377.84 122.19 379.67 118.34 387.84 111.14 386.01 114.98 377.84" style="opacity:0.2"></polygon><path d="M175.47,162.11s9.32,25.53,2,67.31H137.75c-.43-6.1,2.68-38.95-3.91-67.69a102.12,102.12,0,0,1,13.26-1.68,146.31,146.31,0,0,1,16.89,0A76.15,76.15,0,0,1,175.47,162.11Z" style="fill:#407BFF"></path><path d="M175.47,162.11s9.32,25.53,2,67.31H137.75c-.43-6.1,2.68-38.95-3.91-67.69a102.12,102.12,0,0,1,13.26-1.68,146.31,146.31,0,0,1,16.89,0A76.15,76.15,0,0,1,175.47,162.11Z" style="opacity:0.5"></path><path d="M142.65,168.83c.77,4.73-.44,16-4.63,29.12a190.39,190.39,0,0,0-3.56-33.36v-.06C137.07,164.27,141.9,164.39,142.65,168.83Z" style="opacity:0.2"></path><path d="M148.92,144.25c1.2,5.44,1.89,12.17-1.82,15.8,0,0,2.32,5.51,12.42,5.51,9.23,0,4.47-5.51,4.47-5.51-6.09-1.45-6-8.94-5-13.16Z" style="fill:#ffc3bd"></path><path d="M159.52,165.56a10.6,10.6,0,0,0-1.81,5.22s-12.76-4.46-12.33-11c0,0,1.77-1.07,2.89-1.94C148.27,157.85,148.81,163,159.52,165.56Z" style="fill:#fff"></path><path d="M159.52,165.56a20,20,0,0,1,2.6,4.83s5.64-3.88,3.76-10.34a21.86,21.86,0,0,0-3.27-1S163.47,164.17,159.52,165.56Z" style="fill:#fff"></path><path d="M159,146.89a16.29,16.29,0,0,0,.25,8.92,9.64,9.64,0,0,1-2.72-.83c-3.46-1.61-5.21-4.14-7.05-7.91-.16-1-.34-1.9-.55-2.82Z" style="opacity:0.2"></path><path d="M168.27,142.28a6.76,6.76,0,0,1-3.92,3.55c-2.31.78-3.63-1.29-3.13-3.57.45-2,2.19-4.92,4.57-4.71A3.23,3.23,0,0,1,168.27,142.28Z" style="fill:#ffc3bd"></path><path d="M168.27,142.28a6.76,6.76,0,0,1-3.92,3.55c-2.31.78-3.63-1.29-3.13-3.57.45-2,2.19-4.92,4.57-4.71A3.23,3.23,0,0,1,168.27,142.28Z" style="opacity:0.2"></path><path d="M145.54,136.45c1.36,7.31,1.79,11.66,5.92,15.05,6.22,5.11,14.77.8,15.59-6.74.74-6.78-1.6-17.6-9.07-19.79A9.84,9.84,0,0,0,145.54,136.45Z" style="fill:#ffc3bd"></path><path d="M150.6,128.09c1.68,3.14.8,5.19-1.52,10.78-1,2.32-2.58,4.79-5.2.7-2.47-3.86-6.24-11-3-11.78C145.21,126.81,150.6,128.09,150.6,128.09Z" style="fill:#263238"></path><path d="M148.49,130.14c3,1,5.38-.51,5.95-1.95,2.4,1.06,5.55,1.2,6.57-.16,2,0,4.14.36,5.1-2.5s-.23-5.43-3.37-6.88c-.07.64-1.7,1.47-3.23.41a5.11,5.11,0,0,0-5.54.34c-3.27-.85-5.58-1.32-7.46.83-3.11-.65-6.9,2.17-6.38,4.62-2.44,3-.08,5.49,2.42,5.92C143.05,132,147.83,131.41,148.49,130.14Z" style="fill:#263238"></path><path d="M143.27,144.91a7.11,7.11,0,0,0,4.69,2.64c2.43.28,3.21-2,2.17-4.12-.94-1.91-3.34-4.34-5.6-3.65S141.85,143.09,143.27,144.91Z" style="fill:#ffc3bd"></path><path d="M151.37,229.42s.79,9.34,1.79,22c1.15,14.35,2.56,33,3.4,47.17,0,.08,0,.14,0,.2.16,2.69.3,5.22.41,7.53,1.13,23.15,3.45,90.52,3.45,90.52H173s6.33-68.75,6.6-92.31c.25-22.66-2.13-75.11-2.13-75.11Z" style="fill:#263238"></path><path d="M159.5,393c-.05,0,.1,4.11.1,4.11h14.51l.5-4.62Z" style="fill:#407BFF"></path><path d="M153.16,251.42c1.15,14.35,2.56,33,3.4,47.17,0,.08,0,.14,0,.2,3.08-13.46,4.33-30.2,3.89-57.76Z" style="opacity:0.2"></path><path d="M163.39,229.42s-7,53.68-11.15,75c-4.5,23.29-30.16,82.65-30.16,82.65l-13.19-3.35s18.79-54.13,21.12-77.19c2.52-25,7.74-77.06,7.74-77.06Z" style="fill:#263238"></path><path d="M109.68,380.21c-.05,0-1.5,3.54-1.5,3.54l14.49,3.69,2.26-3.93Z" style="fill:#407BFF"></path><path d="M156.81,137.35c.08.6.45,1.05.84,1s.64-.56.56-1.16-.45-1-.83-1S156.74,136.75,156.81,137.35Z" style="fill:#263238"></path><path d="M163.5,136.65c.07.6.44,1,.83,1s.64-.56.56-1.16-.44-1.05-.83-1S163.42,136.05,163.5,136.65Z" style="fill:#263238"></path><path d="M161.41,137.17a22,22,0,0,0,3.46,4.83,3.35,3.35,0,0,1-2.76.83Z" style="fill:#ed847e"></path><path d="M160.62,144.5a.19.19,0,0,0,.15-.2.18.18,0,0,0-.2-.15,4.76,4.76,0,0,1-4.09-1.34.19.19,0,0,0-.25,0,.18.18,0,0,0,0,.25A5.05,5.05,0,0,0,160.62,144.5Z" style="fill:#263238"></path><path d="M154.53,135.37a.37.37,0,0,0,.26-.16,2.7,2.7,0,0,1,2.08-1.41.35.35,0,0,0,.33-.37.36.36,0,0,0-.37-.34,3.36,3.36,0,0,0-2.65,1.75.36.36,0,0,0,.13.48A.3.3,0,0,0,154.53,135.37Z" style="fill:#263238"></path><path d="M166.2,133.93a.35.35,0,0,0,.14-.06.34.34,0,0,0,.07-.49,3.54,3.54,0,0,0-2.83-1.55.34.34,0,0,0-.33.37.36.36,0,0,0,.37.34h0a2.81,2.81,0,0,1,2.23,1.25A.37.37,0,0,0,166.2,133.93Z" style="fill:#263238"></path><path d="M130,172.83l9.57,5.13s-10.9,23.61-9.48,27.12c1.93,4.78,5,15.34,8.3,20.54-.26,1.2-1.88,4-2.88,4.61-7.63-4.7-16.41-20.73-16.57-25.4C118.58,194.19,130,172.83,130,172.83Z" style="fill:#ffc3bd"></path><path d="M133.84,161.73c-7,1-14.46,25.38-14.46,25.38l15,8.34s6.22-11.59,9.21-20.19C146.7,166.25,141.35,160.63,133.84,161.73Z" style="fill:#407BFF"></path><path d="M133.84,161.73c-7,1-14.46,25.38-14.46,25.38l15,8.34s6.22-11.59,9.21-20.19C146.7,166.25,141.35,160.63,133.84,161.73Z" style="opacity:0.5"></path><path d="M117.64,396.79a2.21,2.21,0,0,0,1.46.1,1.06,1.06,0,0,0,.63-.78.58.58,0,0,0-.14-.57c-.65-.66-3.36,0-3.67,0a.17.17,0,0,0-.13.14.19.19,0,0,0,.09.18A8.49,8.49,0,0,0,117.64,396.79Zm1.5-1.11a.35.35,0,0,1,.2.11.22.22,0,0,1,0,.23.73.73,0,0,1-.42.54,3.58,3.58,0,0,1-2.54-.72A6.7,6.7,0,0,1,119.14,395.68Z" style="fill:#407BFF"></path><path d="M115.91,395.93H116c.85-.16,2.74-1.23,2.84-2.08a.59.59,0,0,0-.39-.62,1,1,0,0,0-.78,0c-1,.4-1.83,2.39-1.87,2.47a.19.19,0,0,0,0,.18A.16.16,0,0,0,115.91,395.93Zm2.32-2.4.07,0c.21.1.2.21.19.26,0,.49-1.32,1.37-2.21,1.67.27-.57.86-1.68,1.52-1.94A.64.64,0,0,1,118.23,393.53Z" style="fill:#407BFF"></path><path d="M173.19,407.32a2.79,2.79,0,0,0,1.79-.45,1,1,0,0,0,.31-.86.59.59,0,0,0-.3-.47c-.92-.5-3.87,1-4.2,1.19a.17.17,0,0,0-.09.18.18.18,0,0,0,.14.15A13.39,13.39,0,0,0,173.19,407.32Zm1.3-1.53a.75.75,0,0,1,.33.06.23.23,0,0,1,.12.19.65.65,0,0,1-.2.57c-.45.4-1.67.47-3.32.2A9.54,9.54,0,0,1,174.49,405.79Z" style="fill:#407BFF"></path><path d="M170.88,407.06H171c.89-.41,2.62-2,2.47-2.85,0-.2-.19-.45-.67-.49a1.21,1.21,0,0,0-1,.3c-.93.77-1.08,2.77-1.08,2.86a.17.17,0,0,0,.07.16A.23.23,0,0,0,170.88,407.06Zm1.74-3h.1c.32,0,.34.15.35.19.09.51-1.08,1.77-2,2.32a4,4,0,0,1,.92-2.29A.93.93,0,0,1,172.62,404.05Z" style="fill:#407BFF"></path><path d="M137,224.66l7,.72-4.87,7.06s-6.14-.83-6.43-5.69Z" style="fill:#ffc3bd"></path><polygon points="148.04 228.11 143.32 234.28 139.2 232.44 144.07 225.38 148.04 228.11" style="fill:#ffc3bd"></polygon></g><g id="freepik--Message--inject-64"><path d="M400.19,224.27l7,81.08c.56,6.6-3.47,12.39-9,12.86l-153.86,13.2c-5.5.48-10.47-4.54-11-11.13l-7-81.09a13.62,13.62,0,0,1,.35-4.54c1.1-4.53,4.44-8,8.62-8.31l153.86-13.21c4.17-.36,8,2.45,9.91,6.71A13.88,13.88,0,0,1,400.19,224.27Z" style="fill:#407BFF"></path><path d="M400.19,224.27l7,81.08c.56,6.6-3.47,12.39-9,12.86l-153.86,13.2c-5.5.48-10.47-4.54-11-11.13l-7-81.09a13.62,13.62,0,0,1,.35-4.54c1.1-4.53,4.44-8,8.62-8.31l153.86-13.21c4.17-.36,8,2.45,9.91,6.71A13.88,13.88,0,0,1,400.19,224.27Z" style="opacity:0.1"></path><rect x="417.6" y="272.08" width="1.1" height="3.68" transform="translate(-29.86 52.18) rotate(-6.89)" style="fill:#407BFF"></rect><rect x="416.07" y="254.41" width="1.1" height="13.71" transform="translate(-28.35 51.9) rotate(-6.89)" style="fill:#407BFF"></rect><path d="M407.08,209.77l10.06,83.16c.81,6.76-3.13,12.86-8.77,13.54L250.58,325.56c-5.64.68-10.93-4.3-11.75-11.07l-10.06-83.15a14.34,14.34,0,0,1,.2-4.69c1-4.69,4.28-8.34,8.57-8.86l157.79-19.08c4.29-.52,8.37,2.23,10.44,6.55A14.31,14.31,0,0,1,407.08,209.77Z" style="fill:#407BFF"></path><path d="M405.77,205.26,334.2,253.45A26.44,26.44,0,0,1,310,256.38l-81-29.73c1-4.69,4.28-8.34,8.57-8.86l157.79-19.08C399.62,198.19,403.7,200.94,405.77,205.26Z" style="opacity:0.1"></path><path d="M379.07,223.23l-20.56,13.84-6.73,4.54L334.2,253.45a26.34,26.34,0,0,1-23.61,3.14l-.63-.21-9.86-3.62-22.2-8.15-10.38-3.81-11.76-4.32-.85-20.79L253,169.49l90.33-3.67,34.43,26.09.36,8.87Z" style="fill:#407BFF"></path><path d="M379.07,223.23l-20.56,13.84-6.73,4.54L334.2,253.45a26.34,26.34,0,0,1-23.61,3.14l-.63-.21-9.86-3.62-22.2-8.15-10.38-3.81-11.76-4.32-.85-20.79L253,169.49l90.33-3.67,34.43,26.09.36,8.87Z" style="fill:#fafafa;opacity:0.7000000000000001"></path><g style="opacity:0.9"><path d="M366.34,201.1l-100,4.06a2.14,2.14,0,0,1-2.22-2h0a2.14,2.14,0,0,1,2-2.21l100-4.06a2.14,2.14,0,0,1,2.22,2h0A2.13,2.13,0,0,1,366.34,201.1Z" style="fill:#fff"></path><path d="M366.87,214.39l-100,4.06a2.14,2.14,0,0,1-2.22-2h0a2.15,2.15,0,0,1,2-2.22l100-4.06a2.15,2.15,0,0,1,2.22,2h0A2.16,2.16,0,0,1,366.87,214.39Z" style="fill:#fff"></path><path d="M367.41,227.67l-100,4.06a2.14,2.14,0,0,1-2.22-2h0a2.13,2.13,0,0,1,2-2.21l100-4.06a2.13,2.13,0,0,1,2.21,2h0A2.13,2.13,0,0,1,367.41,227.67Z" style="fill:#fff"></path><path d="M358.51,237.07l-6.73,4.54-73.88,3-10.38-3.81a1.09,1.09,0,0,1,.26,0Z" style="fill:#fff"></path><path d="M331.14,253.62v.08a2.14,2.14,0,0,1-2,2.14l-18.51.75-.63-.21-9.86-3.62,28.83-1.18A2.14,2.14,0,0,1,331.14,253.62Z" style="fill:#fff"></path></g><polygon points="377.8 191.91 353.88 190.88 343.37 165.82 377.8 191.91" style="fill:#263238;opacity:0.1"></polygon><polygon points="377.8 191.91 354.59 187.94 343.37 165.82 377.8 191.91" style="fill:#407BFF"></polygon><path d="M423.81,94.93c0,20.34-22.29,40.33-25.63,40.33s-25.63-20-25.63-40.33c0-13.63,11.47-24.69,25.63-24.69S423.81,81.3,423.81,94.93Z" style="fill:#407BFF"></path><path d="M393.42,89.86c-4.64,5.09-10.94,6.91-14.07,4s-1.91-9.29,2.72-14.38,10.94-6.91,14.08-4.06S398.06,84.77,393.42,89.86Z" style="fill:#fff;opacity:0.1"></path><path d="M379.75,110.35c-.61-1.52-.45-3,.36-3.34s2,.64,2.57,2.16.45,3-.36,3.33S380.36,111.86,379.75,110.35Z" style="fill:#fff;opacity:0.1"></path><path d="M397.08,199.26a.42.42,0,0,1-.41-.41,6.26,6.26,0,0,1,1.16-3.77,5.93,5.93,0,0,0,0-6.68,6.71,6.71,0,0,1,0-7.54,5.91,5.91,0,0,0,0-6.67,6.69,6.69,0,0,1,0-7.53,5.91,5.91,0,0,0,0-6.67,6.69,6.69,0,0,1,0-7.53,5.91,5.91,0,0,0,0-6.67,6.69,6.69,0,0,1,0-7.53,5.5,5.5,0,0,0,1-3.33.42.42,0,0,1,.83,0,6.25,6.25,0,0,1-1.16,3.76,5.56,5.56,0,0,0-1,3.34,5.5,5.5,0,0,0,1,3.33,6.69,6.69,0,0,1,0,7.53,5.87,5.87,0,0,0,0,6.67,6.69,6.69,0,0,1,0,7.53,5.87,5.87,0,0,0,0,6.67,6.69,6.69,0,0,1,0,7.53,5.88,5.88,0,0,0,0,6.68,6.71,6.71,0,0,1,0,7.54,5.51,5.51,0,0,0-1,3.34A.41.41,0,0,1,397.08,199.26Z" style="fill:#263238"></path><path d="M398.18,134.3c-.79,0-6,4.7-6,9.48H404.2C404.2,139,399,134.3,398.18,134.3Z" style="fill:#407BFF"></path><rect x="396.65" y="134.46" width="3.06" height="0.95" rx="0.35" style="fill:#263238"></rect><path d="M263,113.94c0,20.33-22.29,40.32-25.63,40.32s-25.63-20-25.63-40.32c0-13.64,11.47-24.7,25.63-24.7S263,100.3,263,113.94Z" style="fill:#263238"></path><ellipse cx="227.54" cy="104.52" rx="12.47" ry="7.67" transform="translate(-2.95 202.36) rotate(-47.67)" style="fill:#fff;opacity:0.1"></ellipse><path d="M219.54,130.18c-.61-1.52-.45-3,.36-3.34s2,.64,2.57,2.16.45,3-.36,3.34S220.15,131.7,219.54,130.18Z" style="fill:#fff;opacity:0.1"></path><path d="M236.23,218.26a.41.41,0,0,1-.41-.41,6.26,6.26,0,0,1,1.16-3.77,5.93,5.93,0,0,0,0-6.68,6.71,6.71,0,0,1,0-7.54,5.5,5.5,0,0,0,1-3.33,5.56,5.56,0,0,0-1-3.34,6.69,6.69,0,0,1,0-7.53,5.5,5.5,0,0,0,1-3.33,5.56,5.56,0,0,0-1-3.34,6.69,6.69,0,0,1,0-7.53,5.9,5.9,0,0,0,0-6.66,6.69,6.69,0,0,1,0-7.53,5.56,5.56,0,0,0,1-3.34.42.42,0,0,1,.41-.41.41.41,0,0,1,.41.41,6.28,6.28,0,0,1-1.15,3.77,5.85,5.85,0,0,0,0,6.66,6.74,6.74,0,0,1,0,7.53,5.56,5.56,0,0,0-1,3.34,5.5,5.5,0,0,0,1,3.33,6.74,6.74,0,0,1,0,7.53,5.56,5.56,0,0,0-1,3.34,5.5,5.5,0,0,0,1,3.33,6.74,6.74,0,0,1,0,7.53,5.88,5.88,0,0,0,0,6.68,6.75,6.75,0,0,1,0,7.54,5.54,5.54,0,0,0-1,3.34A.41.41,0,0,1,236.23,218.26Z" style="fill:#407BFF"></path><path d="M237.33,153.31c-.79,0-6,4.69-6,9.47h12C243.35,158,238.11,153.31,237.33,153.31Z" style="fill:#263238"></path><rect x="235.8" y="153.46" width="3.06" height="0.95" rx="0.35" style="fill:#407BFF"></rect><circle cx="401.98" cy="206.84" r="14.89" transform="translate(-34 326.39) rotate(-42.56)" style="fill:#de5753"></circle><path d="M404.94,199.67v15H400.8v-9.82a12.82,12.82,0,0,1-1.95,1.24,15.93,15.93,0,0,1-2.36.9v-3.35a9.93,9.93,0,0,0,3.25-1.62,6.7,6.7,0,0,0,1.81-2.33Z" style="fill:#fff"></path></g></svg>