<svg xmlns="http://www.w3.org/2000/svg" viewBox="0 0 500 500"><g id="freepik--background-complete--inject-16"><path d="M430.3,289.76v42.41a13.9,13.9,0,0,1-13.9,13.9H264.33a13.9,13.9,0,0,1-13.89-13.9V296.33L231.5,276.44l184.86-.57A13.89,13.89,0,0,1,430.3,289.76Z" style="fill:#f5f5f5"></path><polygon points="272.85 301.56 410.85 300.92 410.83 296.68 272.84 297.32 272.85 301.56" style="fill:#e6e6e6"></polygon><polygon points="272.85 315.51 410.85 314.88 410.83 310.64 272.84 311.27 272.85 315.51" style="fill:#e6e6e6"></polygon><rect x="272.84" y="324.74" width="54.6" height="4.24" transform="translate(-1.6 1.48) rotate(-0.28)" style="fill:#e6e6e6"></rect><path d="M160.79,46.58h89.69a8,8,0,0,1,8,8V98.49a8,8,0,0,1-8,8H174.37a8,8,0,0,1-8-8V52.12Z" style="fill:#f5f5f5"></path><path d="M273.47,126.44V142.2a4,4,0,0,0,4,4h88.06a4,4,0,0,0,4-4v-8.61l10.11-10.82-102.16-.33A4,4,0,0,0,273.47,126.44Z" style="fill:#f0f0f0"></path><path d="M214.11,95.09v28.13a9.21,9.21,0,0,1-9.21,9.22H104a9.21,9.21,0,0,1-9.21-9.22V99.46L82.26,86.26l122.61-.38A9.21,9.21,0,0,1,214.11,95.09Z" style="fill:#e0e0e0"></path><polygon points="109.69 102.92 201.21 102.5 201.2 99.69 109.68 100.11 109.69 102.92" style="fill:#f0f0f0"></polygon><polygon points="109.69 112.18 201.21 111.75 201.2 108.94 109.68 109.36 109.69 112.18" style="fill:#f0f0f0"></polygon><rect x="109.68" y="118.3" width="36.21" height="2.81" transform="translate(-0.59 0.63) rotate(-0.28)" style="fill:#f0f0f0"></rect><path d="M65.45,187.92v42.42a13.89,13.89,0,0,0,13.9,13.89H231.42a13.89,13.89,0,0,0,13.9-13.89V194.5l18.93-19.89L79.39,174A13.9,13.9,0,0,0,65.45,187.92Z" style="fill:#f0f0f0"></path><polygon points="222.9 199.72 84.9 199.09 84.92 194.85 222.91 195.48 222.9 199.72" style="fill:#e6e6e6"></polygon><polygon points="222.9 213.68 84.9 213.04 84.92 208.8 222.91 209.44 222.9 213.68" style="fill:#e6e6e6"></polygon><rect x="193.49" y="197.72" width="4.24" height="54.6" transform="translate(-30.38 419.52) rotate(-89.72)" style="fill:#e6e6e6"></rect><circle cx="347.14" cy="80.39" r="18.47" transform="translate(131.42 364) rotate(-65.78)" style="fill:#f5f5f5"></circle><path d="M340.77,75.74c.69-.06,1.33.71,1.41,1.72s-.41,1.88-1.11,1.94-1.34-.72-1.42-1.73S340.07,75.79,340.77,75.74Z" style="fill:#e0e0e0"></path><path d="M342.39,71.06a21.58,21.58,0,0,0-3.29.67,21.65,21.65,0,0,0-2.94,1.63,5.81,5.81,0,0,1,6.23-2.3Z" style="fill:#e0e0e0"></path><path d="M352.51,75.5c-.71,0-1.31.76-1.35,1.78s.49,1.85,1.2,1.88,1.3-.77,1.34-1.78S353.21,75.52,352.51,75.5Z" style="fill:#e0e0e0"></path><path d="M350.69,70.89a5.8,5.8,0,0,1,6.31,2,20.23,20.23,0,0,0-3-1.51A22.38,22.38,0,0,0,350.69,70.89Z" style="fill:#e0e0e0"></path><path d="M356.25,80.2a3.34,3.34,0,0,1-.13,1A8.48,8.48,0,0,1,355,83.7a9.82,9.82,0,0,1-2.81,2.91,8.93,8.93,0,0,1-9.53.5,9.94,9.94,0,0,1-3.11-2.61,8.49,8.49,0,0,1-1.32-2.38,2.71,2.71,0,0,1-.23-1,14.06,14.06,0,0,0,1.85,3.11,9.67,9.67,0,0,0,3,2.41,8.64,8.64,0,0,0,9-.47,9.82,9.82,0,0,0,2.77-2.71A14.42,14.42,0,0,0,356.25,80.2Z" style="fill:#e0e0e0"></path><path d="M93.35,288H96l5.84-7.78v-5.11s4.13-.24,3.65,6.45,0,5,0,5,8.77,0,9.5.76c.53.53.77,8.87.86,13.39a4.92,4.92,0,0,1-3.62,4.94,4.49,4.49,0,0,1-1,.12C109.15,305.72,98,304,98,304H93.35Z" style="fill:#f0f0f0"></path><polygon points="85.7 286.57 87.34 304.06 91.92 304.06 91.92 286.92 85.7 286.57" style="fill:#f0f0f0"></polygon><path d="M461,135.92a3.54,3.54,0,0,0-4.94-.23,6,6,0,0,0-2.25,4.56,6.14,6.14,0,0,0-3-4.22,3.58,3.58,0,0,0-4.91.88,4.79,4.79,0,0,0-.5,3.42,6.5,6.5,0,0,0,1.42,3.19c2.77,2.94,4.2,3.41,7.63,5.4,3.12-2.42,4.13-3,6.47-6.33a6.54,6.54,0,0,0,1-3.35A4.83,4.83,0,0,0,461,135.92Z" style="fill:#f0f0f0"></path></g><g id="freepik--Device--inject-16"><path d="M296.22,405.73l-104.08-.49a22.66,22.66,0,0,1-22.57-22.76l1.11-260.93A22.68,22.68,0,0,1,193.45,99l104.08.48a22.68,22.68,0,0,1,22.57,22.77L319,383.15A22.69,22.69,0,0,1,296.22,405.73Z" style="fill:#263238"></path><path d="M297.38,108.46l-20.18-.09a5,5,0,0,0-4.92,5.1v3.66a5,5,0,0,1-4.92,5.1L228,122.05a5,5,0,0,1-4.88-5.15l0-3.66a5,5,0,0,0-4.88-5.15l-7.1,0L193.51,108a15.88,15.88,0,0,0-15.95,15.81l-1.08,254.68a15.89,15.89,0,0,0,15.81,15.95l103.87.48a15.88,15.88,0,0,0,15.95-15.81l1.08-254.68A15.89,15.89,0,0,0,297.38,108.46Z" style="fill:#fff"></path><path d="M240.29,362.76a2.18,2.18,0,1,1-2.18-2.18A2.19,2.19,0,0,1,240.29,362.76Z" style="fill:#455a64"></path><path d="M248.57,362.76a2.18,2.18,0,1,1-2.18-2.18A2.19,2.19,0,0,1,248.57,362.76Z" style="fill:#455a64"></path><path d="M256.85,362.76a2.18,2.18,0,1,1-2.18-2.18A2.19,2.19,0,0,1,256.85,362.76Z" style="fill:#455a64"></path><path d="M196.91,179.51s0-.18,0-.55a7.22,7.22,0,0,1,1.47-4,7.44,7.44,0,0,1,2.81-2.32,9.13,9.13,0,0,1,4.53-.75h18.92l80,.16h.59l-.41.43-10.25,10.78.07-.17v17.85a13.38,13.38,0,0,1-.26,3.55,7.66,7.66,0,0,1-1.69,3.15,7.75,7.75,0,0,1-2.88,2.06,8.59,8.59,0,0,1-3.46.59H253.71L210,210.2H205.4a8.67,8.67,0,0,1-4.29-.77,7.68,7.68,0,0,1-4.32-6.39c0-5,0-9.21,0-12.7s0-6.17.05-8c0-.91,0-1.6,0-2.09s0-.71,0-.71,0,.24,0,.71,0,1.18,0,2.09c0,1.85,0,4.55,0,8s0,7.75.07,12.68a7.37,7.37,0,0,0,4.18,6.11,8.28,8.28,0,0,0,4.14.72H210l43.76-.05,25.84,0h6.78a8,8,0,0,0,3.26-.55,7.35,7.35,0,0,0,2.7-1.92,7.09,7.09,0,0,0,1.56-2.94,12.84,12.84,0,0,0,.25-3.42V183l.07-.07,10.26-10.78.19.43-80-.34-13.44-.07-5.49,0a9,9,0,0,0-4.44.69,7.34,7.34,0,0,0-2.78,2.24,7.65,7.65,0,0,0-1.22,2.34A11.38,11.38,0,0,0,196.91,179.51Z" style="fill:#455a64"></path><polygon points="282.22 185.91 207.45 185.56 207.46 183.26 282.22 183.61 282.22 185.91" style="fill:#455a64"></polygon><polygon points="282.22 193.47 207.45 193.12 207.46 190.82 282.22 191.17 282.22 193.47" style="fill:#455a64"></polygon><rect x="266.28" y="184.82" width="2.3" height="29.58" transform="translate(66.5 466.06) rotate(-89.72)" style="fill:#455a64"></rect><path d="M298.56,230.15v23a7.53,7.53,0,0,1-7.52,7.53h-82.4a7.53,7.53,0,0,1-7.53-7.53V233.72l-10.25-10.78L291,222.63A7.52,7.52,0,0,1,298.56,230.15Z" style="fill:#407BFF"></path><polygon points="213.26 236.55 288.03 236.2 288.02 233.9 213.25 234.25 213.26 236.55" style="fill:#fff"></polygon><polygon points="213.26 244.11 288.03 243.76 288.02 241.47 213.25 241.81 213.26 244.11" style="fill:#fff"></polygon><rect x="213.25" y="249.11" width="29.58" height="2.3" transform="translate(-1.23 1.12) rotate(-0.28)" style="fill:#fff"></rect><path d="M253.71,142.12a4,4,0,0,0,2.4-3.74,3.79,3.79,0,1,0-7.57,0,4,4,0,0,0,2.41,3.77c-5.83.88-5.57,7.22-5.57,7.22l13.79.06S259.49,143,253.71,142.12Z" style="fill:#407BFF"></path><path d="M253.71,142.12a4,4,0,0,0,2.4-3.74,3.79,3.79,0,1,0-7.57,0,4,4,0,0,0,2.41,3.77c-5.83.88-5.57,7.22-5.57,7.22l13.79.06S259.49,143,253.71,142.12Z" style="fill:#fff;opacity:0.5"></path><path d="M246.14,142.12a4.06,4.06,0,0,0,2.41-3.74,3.8,3.8,0,1,0-7.58,0,4,4,0,0,0,2.41,3.77c-5.83.88-5.57,7.22-5.57,7.22l13.79.06S251.92,143,246.14,142.12Z" style="fill:#407BFF"></path><rect x="230.13" y="152.17" width="37.07" height="4.6" transform="translate(0.72 -1.15) rotate(0.26)" style="fill:#407BFF"></rect><rect x="230.13" y="152.17" width="37.07" height="4.6" transform="translate(0.72 -1.15) rotate(0.26)" style="fill:#fff;opacity:0.30000000000000004"></rect><path d="M198.64,282.52a2.74,2.74,0,0,1,0-.54,3.86,3.86,0,0,1,.51-1.53,4.06,4.06,0,0,1,2-1.71,10,10,0,0,1,3.56-.31h22.93l77.21.16h.59L305,279,294.9,289.84l.07-.18v7.25c0,.54,0,1,0,1.6a4.23,4.23,0,0,1-2.84,3.79,4.58,4.58,0,0,1-1.63.24H279.73l-23.31,0L217,302.46H203.51a7.77,7.77,0,0,1-1.73-.1,4.14,4.14,0,0,1-3.2-3.34,9.47,9.47,0,0,1-.06-1.49c0-1.91,0-3.65,0-5.22,0-3.13,0-5.56.05-7.24,0-.81,0-1.43,0-1.88s0-.64,0-.64,0,.22,0,.64,0,1.07,0,1.88c0,1.68,0,4.11.05,7.24,0,1.57,0,3.31,0,5.22a8.63,8.63,0,0,0,.07,1.44,3.85,3.85,0,0,0,3,3.11,8.28,8.28,0,0,0,1.67.08H209l8,0,39.46-.06h34.07a4.08,4.08,0,0,0,1.45-.21,3.76,3.76,0,0,0,2.14-1.91,3.68,3.68,0,0,0,.36-1.42c0-.5,0-1.05,0-1.57v-7.35l.07-.07,10.12-10.82.18.43-77.2-.33-22.93-.15a9.6,9.6,0,0,0-3.5.26,4,4,0,0,0-2.48,3.1A4.51,4.51,0,0,1,198.64,282.52Z" style="fill:#455a64"></path><polygon points="285.57 288.58 210.8 288.24 210.81 285.94 285.58 286.29 285.57 288.58" style="fill:#455a64"></polygon><rect x="269.26" y="279.59" width="2.3" height="30.34" transform="translate(-25.67 563.72) rotate(-89.72)" style="fill:#455a64"></rect><path d="M295.93,323.54v15.75a4,4,0,0,1-4,4H203.87a4,4,0,0,1-4-4v-8.61l-10.11-10.82,102.17-.32A4,4,0,0,1,295.93,323.54Z" style="fill:#407BFF"></path><polygon points="209.01 329.6 283.78 329.26 283.77 326.96 209 327.31 209.01 329.6" style="fill:#fff"></polygon><polygon points="209.01 337 283.78 336.65 283.77 334.36 209 334.7 209.01 337" style="fill:#fff"></polygon></g><g id="freepik--Emojis--inject-16"><circle cx="416.45" cy="123" r="11.73" style="fill:#407BFF"></circle><circle cx="416.45" cy="123" r="11.73" style="fill:#fff;opacity:0.5"></circle><path d="M412.56,119.64c.44,0,.84.47.88,1.11s-.29,1.19-.74,1.21-.84-.47-.88-1.11S412.11,119.66,412.56,119.64Z" style="fill:#263238"></path><path d="M413.65,116.69c0,.17-1,.12-2,.5s-1.81,1-1.93.88.49-1,1.73-1.44S413.7,116.54,413.65,116.69Z" style="fill:#263238"></path><path d="M422.15,121.47c-.13.1-.76-.58-1.77-.68s-1.77.41-1.87.29.08-.29.41-.52a2.43,2.43,0,0,1,1.53-.36,2.34,2.34,0,0,1,1.41.68C422.14,121.18,422.21,121.42,422.15,121.47Z" style="fill:#263238"></path><path d="M423.16,119.51c-.09.14-1-.35-2.31-.39s-2.26.36-2.34.2a2.71,2.71,0,0,1,2.36-.79C422.33,118.58,423.26,119.4,423.16,119.51Z" style="fill:#263238"></path><path d="M422.33,122.77a3.71,3.71,0,0,1-.74,2.25,5.94,5.94,0,0,1-10,.31,3.56,3.56,0,0,1-.87-2.2,14.07,14.07,0,0,0,1.2,2,5.76,5.76,0,0,0,9.29-.29A16.79,16.79,0,0,0,422.33,122.77Z" style="fill:#263238"></path><path d="M88.22,330.49a16.5,16.5,0,1,1-16-17A16.5,16.5,0,0,1,88.22,330.49Z" style="fill:#407BFF"></path><path d="M88.22,330.49a16.5,16.5,0,1,1-16-17A16.5,16.5,0,0,1,88.22,330.49Z" style="fill:#fff;opacity:0.5"></path><path d="M68.48,325.45a1.84,1.84,0,0,0-2.54-.37,3.16,3.16,0,0,0-1.37,2.24A3.23,3.23,0,0,0,63.25,325a1.87,1.87,0,0,0-2.57.22,2.48,2.48,0,0,0-.42,1.73,3.42,3.42,0,0,0,.57,1.71,13,13,0,0,0,3.67,3.15,12.09,12.09,0,0,0,3.63-2.94,3.44,3.44,0,0,0,.67-1.67A2.45,2.45,0,0,0,68.48,325.45Z" style="fill:#407BFF"></path><path d="M83,325.86a1.83,1.83,0,0,0-2.54-.36,3.1,3.1,0,0,0-1.37,2.24,3.23,3.23,0,0,0-1.32-2.32,1.86,1.86,0,0,0-2.57.22,2.46,2.46,0,0,0-.42,1.73,3.32,3.32,0,0,0,.57,1.71,13,13,0,0,0,3.67,3.15,12.4,12.4,0,0,0,3.63-2.94,3.47,3.47,0,0,0,.67-1.68A2.47,2.47,0,0,0,83,325.86Z" style="fill:#407BFF"></path><path d="M77.08,334.05a5.44,5.44,0,0,1-10.84-.5Z" style="fill:#fff"></path></g><g id="freepik--character-2--inject-16"><path d="M380.6,435.92l-2-10.56-18.95,3.36,2.75,15.83,1.19-.13c5.29-.63,26.76-3.91,30.06-5.64C397.38,436.85,380.6,435.92,380.6,435.92Z" style="fill:#407BFF"></path><path d="M394,437.73c0,.18-7,1.63-15.76,3.24s-15.84,2.77-15.87,2.59,7-1.62,15.75-3.23S393.94,437.56,394,437.73Z" style="fill:#263238"></path><path d="M381.33,438c-.17-.06-.14-.64.17-1.26s.74-1,.89-.91,0,.61-.31,1.19S381.5,438.07,381.33,438Z" style="fill:#263238"></path><path d="M382.67,438.49c-.18,0-.21-.67,0-1.4s.67-1.21.83-1.13,0,.67-.21,1.34S382.85,438.52,382.67,438.49Z" style="fill:#263238"></path><path d="M368,442.44c-.07.07-.4-.16-.9-.55a12,12,0,0,0-2-1.35A4.39,4.39,0,0,0,363,440c-.59,0-.95.19-1,.1s.26-.39.94-.56a3.84,3.84,0,0,1,2.58.39,7,7,0,0,1,2,1.61C367.88,442,368.09,442.38,368,442.44Z" style="fill:#263238"></path><path d="M381,436c.12.13-.14.56-.64.86s-1,.32-1.06.15.29-.45.73-.72S380.9,435.88,381,436Z" style="fill:#263238"></path><path d="M380.54,435.05c0,.18-.43.42-1.07.55s-1.17.08-1.19-.1.46-.42,1.06-.54S380.49,434.88,380.54,435.05Z" style="fill:#263238"></path><path d="M403.4,324.27c-5.87-11.85-37.33-57.69-37.33-57.69l-16.79,1.76,0-.1-18.79,2.06h0l-10.36,1.14,37.51,163.83,25.94-.47-6.24-30.31C381.63,393.74,406.65,330.83,403.4,324.27Zm-26.76,7.07-9.27,24.89-10.5-51Z" style="fill:#263238"></path><path d="M355.83,190.91c-.24-1.71.68-8.82.68-8.82s6.53-.48,7.14-6.92.68-21.35.68-21.35l-11.67-6.18-13.37,9.46-3.46,9,4.56,11.18-.14,3.7,0,8.47Z" style="fill:#ffbe9d"></path><path d="M363.46,164.62a.83.83,0,1,1-.8-.85A.82.82,0,0,1,363.46,164.62Z" style="fill:#263238"></path><path d="M363.52,163.75c-.11.11-.71-.43-1.59-.51s-1.57.33-1.66.21.07-.25.37-.44a2.17,2.17,0,0,1,1.34-.3,2.14,2.14,0,0,1,1.25.54C363.49,163.5,363.57,163.71,363.52,163.75Z" style="fill:#263238"></path><path d="M353,163.61a.83.83,0,1,1-1.16.18A.83.83,0,0,1,353,163.61Z" style="fill:#263238"></path><path d="M353.65,163.44c-.11.1-.7-.44-1.59-.51s-1.57.33-1.66.2.07-.24.37-.43a2.21,2.21,0,0,1,1.34-.31,2.17,2.17,0,0,1,1.26.55C353.63,163.18,353.71,163.39,353.65,163.44Z" style="fill:#263238"></path><path d="M356.62,171.06a5.94,5.94,0,0,1,1.46-.14c.23,0,.45,0,.51-.19a1.38,1.38,0,0,0-.11-.73c-.17-.59-.35-1.21-.55-1.86a33.64,33.64,0,0,1-1.2-4.85,6.72,6.72,0,0,1,.52,1.37c.28.86.65,2.05,1,3.38.18.65.36,1.28.52,1.87a1.42,1.42,0,0,1,.06.94.53.53,0,0,1-.39.3,1.36,1.36,0,0,1-.39,0A6.06,6.06,0,0,1,356.62,171.06Z" style="fill:#263238"></path><path d="M353.66,171.8c-.89-.62,2.43,1.57,4.25,1.62a2.47,2.47,0,0,1-3,.75C353.06,173.3,353.66,171.8,353.66,171.8Z" style="fill:#fff"></path><path d="M356.51,182.09a16.12,16.12,0,0,1-8.46-3.16s1.78,4.8,8.27,4.74Z" style="fill:#eb996e"></path><path d="M341.15,167.9s-.09.07-.25.16a1,1,0,0,1-.72.05,2.35,2.35,0,0,1-1.22-2.06,3.16,3.16,0,0,1,.18-1.39,1.09,1.09,0,0,1,.68-.77.48.48,0,0,1,.58.22c.08.15.05.27.08.27s.12-.1.06-.32a.6.6,0,0,0-.24-.33.7.7,0,0,0-.54-.11,1.35,1.35,0,0,0-.95.91,3.31,3.31,0,0,0-.24,1.56,2.51,2.51,0,0,0,1.55,2.29,1,1,0,0,0,.86-.2C341.15,168,341.17,167.91,341.15,167.9Z" style="fill:#eb996e"></path><path d="M366,154.89a4.18,4.18,0,0,1-1.09.21,6.93,6.93,0,0,0,2.87-2.83,5.5,5.5,0,0,0,0-5.48,3.9,3.9,0,0,0-5-1.4,3.15,3.15,0,0,0-1.11-4,5.15,5.15,0,0,0-4.44-.39,15.38,15.38,0,0,0-4,2.28,3.28,3.28,0,0,0-1.83-2.4,5.09,5.09,0,0,0-3.06-.39,7.45,7.45,0,0,0-6.07,6,3.94,3.94,0,0,0-6.56,1.51.74.74,0,0,1,0,.14,3.14,3.14,0,0,0-1.44,1.26,3.77,3.77,0,0,0-.31,3.2,5.16,5.16,0,0,0,2,2.51,4.12,4.12,0,0,1,.92.89,2.16,2.16,0,0,1,.35,1c-.09,2.16-1.19,4.2-1.73,6.32-.74,2.94.89,6.95,1.83,9.83s1.27,4,3.1,4.23l.28-7.74c-2,1.64-4.67-4-2.92-6.25s3.61-1.48,3.93-.06a13.82,13.82,0,0,0,.47,1.61h2l-.22-1.69s-.41-7.51,3.18-8a3.63,3.63,0,0,1,2.72.5,7.63,7.63,0,0,0,3.65.51c1.28,0,3-1.46,3-2.73a7,7,0,0,0,6,2.41,6.52,6.52,0,0,0,1.69-.41,3.55,3.55,0,0,0,2.06-.05,3.5,3.5,0,0,0,1.72-1.23c.32-.45.38-.79.32-.82A6.54,6.54,0,0,1,366,154.89Zm-29.8-.24a4.85,4.85,0,0,1-1.78-2.3,3.35,3.35,0,0,1,.23-2.77,2.76,2.76,0,0,1,.89-1c-.34,2.27,1.14,4.57,1.53,6.94A5,5,0,0,0,336.24,154.65Z" style="fill:#407BFF"></path><path d="M400.38,164.28v12.89a5.29,5.29,0,0,0,5.29,5.29H428v7.37l4-7.05h0a4.7,4.7,0,0,0,4.36-4.69V164.28A5.29,5.29,0,0,0,431,159H405.67A5.29,5.29,0,0,0,400.38,164.28Z" style="fill:#407BFF"></path><path d="M412.53,171.41a2.18,2.18,0,1,1-2.18-2.18A2.18,2.18,0,0,1,412.53,171.41Z" style="fill:#fff"></path><path d="M420.81,171.41a2.18,2.18,0,1,1-2.18-2.18A2.18,2.18,0,0,1,420.81,171.41Z" style="fill:#fff"></path><path d="M429.09,171.41a2.18,2.18,0,1,1-2.18-2.18A2.18,2.18,0,0,1,429.09,171.41Z" style="fill:#fff"></path><path d="M418,202.59c-.45-1-28.85,24.07-34.51,24.93l-16.56-21.58s-3.44-5.45-10.83-14.79c-4.76-6-17.91-4.78-21.37,2.57-5.87,12.47-6.07,29-10.61,55.56l-3.84,22.53s5.67-.67,5.65-.62L366.25,267l1-27c8,8.08,10.44,9.77,14.59,9.13,10.43-1.62,46.92-34.44,46.92-34.44S418.44,203.61,418,202.59Z" style="fill:#455a64"></path><path d="M423.84,219.28a10.46,10.46,0,0,1-2-1.58,45,45,0,0,1-8.08-9.48,10.16,10.16,0,0,1-1.23-2.28A16.88,16.88,0,0,1,414,208c.92,1.29,2.23,3.05,3.8,4.89s3.09,3.41,4.22,4.53A15.71,15.71,0,0,1,423.84,219.28Z" style="fill:#263238"></path><path d="M381.88,236.07a37.24,37.24,0,0,1,1.52-8.55,35.86,35.86,0,0,1-1.52,8.55Z" style="fill:#263238"></path><path d="M385.5,235.18a14.82,14.82,0,0,1-1.27-3.71,14.5,14.5,0,0,1-.77-3.84,15.31,15.31,0,0,1,1.27,3.71A15,15,0,0,1,385.5,235.18Z" style="fill:#263238"></path><polygon points="345.84 211.67 366.83 251.35 367.3 239.58 345.84 211.67" style="opacity:0.2"></polygon><path d="M344.48,209.74a9.28,9.28,0,0,1,1,1.2l2.5,3.35c2.11,2.84,5.06,6.73,8.37,11l8.5,10.89,2.55,3.32a9,9,0,0,1,.88,1.26,9.27,9.27,0,0,1-1-1.13c-.69-.84-1.59-1.92-2.68-3.22-2.24-2.74-5.31-6.54-8.62-10.8s-6.22-8.2-8.26-11.09c-1-1.45-1.83-2.63-2.37-3.46A8.73,8.73,0,0,1,344.48,209.74Z" style="fill:#263238"></path><path d="M345.14,222.14a5.32,5.32,0,0,1-.37-1.21c-.2-.79-.46-1.92-.77-3.31l.31.15L340.18,220l-.28.15-.09-.31c-.15-.54-.31-1.11-.48-1.69l-.72-2.59.37.15L334.91,218l-.25.14,0-.28a24.24,24.24,0,0,1-.42-3.74,24.21,24.21,0,0,1,.8,3.68l-.29-.14,4-2.39.28-.17.09.32c.23.83.48,1.7.73,2.59.17.58.33,1.15.48,1.69l-.37-.15,4.17-2.17.25-.14.05.28c.26,1.39.47,2.54.59,3.34A5.1,5.1,0,0,1,345.14,222.14Z" style="fill:#263238"></path><path d="M350.07,199.71a4.81,4.81,0,0,1-1.12-.61c-.69-.43-1.66-1.06-2.84-1.84l.32-.11c-.42,1.33-.89,2.85-1.4,4.48l-.1.31-.28-.16-1.52-.89-2.32-1.36.37-.15-1.33,4.48-.08.27-.22-.17a24.68,24.68,0,0,1-2.9-2.4,25.59,25.59,0,0,1,3.13,2.09l-.3.1c.35-1.32.76-2.84,1.21-4.5l.09-.32.28.17,2.33,1.34,1.52.89-.37.14L346,197l.1-.27.23.16c1.15.82,2.09,1.5,2.74,2A5.25,5.25,0,0,1,350.07,199.71Z" style="fill:#263238"></path><path d="M364.8,207.42a5,5,0,0,1-.95-.85c-.58-.57-1.4-1.4-2.38-2.42l.34,0c-.7,1.21-1.5,2.58-2.35,4.07l-.16.27-.24-.22-1.29-1.19-2-1.83.4-.07c-.84,1.51-1.61,2.88-2.28,4.07l-.14.25-.18-.21a25.17,25.17,0,0,1-2.3-3,25.53,25.53,0,0,1,2.6,2.72l-.32,0,2.17-4.13.16-.29.24.22,2,1.83,1.28,1.2-.39,0,2.42-4,.15-.24.19.21c1,1,1.72,1.92,2.24,2.54A4.79,4.79,0,0,1,364.8,207.42Z" style="fill:#e0e0e0"></path><path d="M403.64,232.67s-.34-.32-.84-.95-1.21-1.56-2.05-2.7h.34l-2.84,3.74-.2.25-.2-.24-1.14-1.35L395,229.36h.4l-2.77,3.75-.17.23-.15-.23a25.66,25.66,0,0,1-1.91-3.24,24.24,24.24,0,0,1,2.23,3h-.32c.79-1.11,1.69-2.4,2.68-3.82l.19-.26.21.25,1.73,2.06,1.13,1.35h-.4l2.91-3.68.18-.23.16.23c.81,1.17,1.46,2.13,1.91,2.81A5.79,5.79,0,0,1,403.64,232.67Z" style="fill:#263238"></path><path d="M379.59,230.65a5.59,5.59,0,0,1-1-.73c-.64-.5-1.55-1.23-2.64-2.12l.33-.08L374.38,232l-.12.29-.26-.19-1.43-1-2.17-1.6.39-.11c-.66,1.6-1.26,3-1.79,4.31l-.11.27-.2-.2a23.74,23.74,0,0,1-2.63-2.68,24.76,24.76,0,0,1,2.89,2.4l-.31.07c.49-1.28,1.06-2.75,1.68-4.35l.12-.31.26.19,2.18,1.58,1.42,1-.39.11,1.94-4.28.12-.26.21.18c1.06.94,1.93,1.71,2.53,2.26S379.62,230.61,379.59,230.65Z" style="fill:#e0e0e0"></path><path d="M414,225a5.29,5.29,0,0,1-.26-1.24c-.12-.81-.28-2-.46-3.36l.3.17-4.32,1.86-.29.12-.06-.31c-.1-.56-.21-1.14-.32-1.73-.17-.92-.33-1.8-.48-2.65l.35.18L404.21,220l-.26.11v-.28a23.71,23.71,0,0,1-.07-3.76,23.84,23.84,0,0,1,.45,3.74l-.27-.17,4.21-2,.29-.15.06.33c.16.85.33,1.73.5,2.64.11.6.21,1.18.31,1.73l-.35-.19,4.35-1.77.27-.11,0,.28c.13,1.41.23,2.57.28,3.38A5.39,5.39,0,0,1,414,225Z" style="fill:#e0e0e0"></path><path d="M366.06,214.34A5.54,5.54,0,0,1,365,215c-.7.4-1.72,1-3,1.63l.06-.34,3.27,3.37.22.23-.27.17-1.5.91-2.3,1.4,0-.4,3.3,3.3.2.21-.26.11a24.24,24.24,0,0,1-3.49,1.4,25.57,25.57,0,0,1,3.33-1.76l-.05.32-3.38-3.22-.24-.22.28-.17,2.3-1.41,1.5-.91,0,.39c-1.17-1.24-2.26-2.41-3.21-3.43l-.2-.21.26-.12c1.27-.62,2.32-1.13,3.05-1.46A4.78,4.78,0,0,1,366.06,214.34Z" style="fill:#263238"></path><path d="M384.41,236.07a5.31,5.31,0,0,1-1.07.69c-.7.4-1.72,1-3,1.62l.05-.33,3.28,3.37.22.22-.27.17-1.5.92-2.31,1.39.05-.39,3.3,3.3.2.2-.26.11a25.82,25.82,0,0,1-3.49,1.41A25.57,25.57,0,0,1,383,247l-.06.32-3.37-3.22-.24-.23.28-.17,2.29-1.4,1.51-.92-.05.4-3.21-3.43-.2-.21.25-.12c1.27-.63,2.32-1.13,3.06-1.47A4.82,4.82,0,0,1,384.41,236.07Z" style="fill:#e0e0e0"></path><path d="M348,235.78a5.81,5.81,0,0,1-.37-1.22c-.2-.79-.46-1.92-.77-3.3l.31.14L343,233.65l-.28.16-.08-.31c-.16-.55-.32-1.12-.48-1.7-.25-.89-.5-1.76-.73-2.59l.37.15-4.06,2.29-.25.14,0-.28a26,26,0,0,1-.42-3.73,23.48,23.48,0,0,1,.8,3.67l-.29-.14,4-2.39.28-.16.09.31c.23.83.48,1.7.74,2.59l.47,1.7-.37-.16,4.17-2.17.25-.13.06.27c.26,1.39.46,2.54.59,3.34A5.39,5.39,0,0,1,348,235.78Z" style="fill:#e0e0e0"></path><path d="M364.66,245.22a5.55,5.55,0,0,1-.37-1.22c-.2-.79-.46-1.92-.77-3.3l.31.14-4.12,2.25-.28.16-.09-.31c-.16-.55-.32-1.12-.48-1.69-.25-.9-.49-1.77-.73-2.6l.37.15-4.06,2.29-.25.14,0-.27a26.19,26.19,0,0,1-.42-3.74,23.85,23.85,0,0,1,.8,3.67l-.29-.13,4-2.39.28-.17.09.32c.24.83.48,1.69.74,2.58l.47,1.7-.36-.16,4.16-2.17.26-.13.05.27c.26,1.39.46,2.54.59,3.34A4.79,4.79,0,0,1,364.66,245.22Z" style="fill:#263238"></path><path d="M340.21,266a5.32,5.32,0,0,1-.37-1.21c-.2-.79-.46-1.92-.77-3.3l.31.14-4.12,2.25-.28.15-.09-.31c-.16-.54-.32-1.11-.48-1.69l-.72-2.59.36.15L330,261.92l-.25.14,0-.28a25.91,25.91,0,0,1-.42-3.74,24.21,24.21,0,0,1,.8,3.68l-.29-.14,4-2.39.28-.17.09.32c.24.83.48,1.7.74,2.59l.47,1.69-.36-.15,4.16-2.17.26-.14.05.28c.26,1.39.46,2.54.59,3.34A4.25,4.25,0,0,1,340.21,266Z" style="fill:#e0e0e0"></path><path d="M340.69,244.19a5,5,0,0,1-1.05-.72c-.65-.48-1.57-1.2-2.67-2.09l.33-.08-1.81,4.34-.12.29-.26-.19c-.47-.32-.95-.67-1.44-1l-2.18-1.57.38-.11-1.74,4.33-.11.26-.2-.19a26.61,26.61,0,0,1-2.67-2.65,23.83,23.83,0,0,1,2.93,2.36l-.31.08c.47-1.28,1-2.76,1.63-4.37l.11-.31.27.19L334,244.3l1.43,1-.38.1,1.89-4.3.12-.26.21.18c1.07.93,1.95,1.69,2.55,2.24A5.43,5.43,0,0,1,340.69,244.19Z" style="fill:#263238"></path><path d="M349.41,244.78a5.05,5.05,0,0,1-1,.76c-.67.45-1.65,1.08-2.85,1.83l0-.34,3.51,3.13.23.22-.26.18-1.43,1-2.2,1.55,0-.39L349,255.8l.21.19-.24.13a24.77,24.77,0,0,1-3.39,1.64,26.09,26.09,0,0,1,3.2-2l0,.32-3.6-3-.25-.21.27-.19,2.19-1.56,1.43-1,0,.4-3.44-3.19-.21-.2.24-.14c1.22-.71,2.23-1.29,2.95-1.68A4.73,4.73,0,0,1,349.41,244.78Z" style="fill:#263238"></path><path d="M359,251.6a5,5,0,0,1-.7,1.06c-.48.66-1.19,1.58-2.06,2.7l-.08-.33,4.36,1.75.29.11-.18.27-1,1.45-1.54,2.21-.12-.39,4.35,1.68.27.11-.19.2a23.83,23.83,0,0,1-2.62,2.7,26.12,26.12,0,0,1,2.33-2.95l.08.31-4.39-1.57-.31-.11.19-.27c.48-.71,1-1.45,1.52-2.22.35-.49.68-1,1-1.44l.11.38L356,255.42l-.26-.11.18-.22c.91-1.09,1.66-2,2.2-2.58S359,251.57,359,251.6Z" style="fill:#e0e0e0"></path><path d="M353.56,267.9s0,.11.11.33.17.57.29,1c.24.87.6,2.16,1,3.83s.91,3.71,1.26,6.14a6.51,6.51,0,0,1-.51,3.91,12.67,12.67,0,0,1-2.56,3.63l0-.17c2.62,12.44,6.29,29.87,10.36,49.15,3.95,19,7.48,36.15,10,48.6,1.25,6.22,2.24,11.26,2.89,14.75.33,1.74.57,3.1.72,4a6,6,0,0,1,.16,1.42s-.08-.48-.26-1.4-.47-2.29-.82-4c-.73-3.51-1.77-8.53-3.05-14.72-2.6-12.45-6.17-29.61-10.12-48.56-4-19.3-7.62-36.74-10.2-49.18l0-.1.07-.07c2.12-2.13,3.55-4.82,3-7.24-.32-2.41-.81-4.47-1.18-6.14s-.69-2.93-.91-3.84l-.24-1A1.45,1.45,0,0,1,353.56,267.9Z" style="fill:#455a64"></path><path d="M332.5,270.3s.16.22.31.68a7.78,7.78,0,0,1,.38,2,9.24,9.24,0,0,1-7.63,9.77,8.08,8.08,0,0,1-2,.12,1.92,1.92,0,0,1-.73-.13c0-.1,1.06,0,2.69-.35a9.34,9.34,0,0,0,7.33-9.4A23,23,0,0,0,332.5,270.3Z" style="fill:#455a64"></path><path d="M349.25,271.37s0-.15.24-.28a1.31,1.31,0,0,1,1-.13,1.33,1.33,0,0,1,1,1.11,1.5,1.5,0,0,1-2.69,1.11,1.43,1.43,0,0,1-.17-1.49c.41-.81,1.07-.83,1.05-.77s-.48.24-.7.9a1.07,1.07,0,0,0,.19,1.06,1.15,1.15,0,0,0,1.22.33,1.1,1.1,0,0,0,.62-1.08.93.93,0,0,0-.65-.82A1.78,1.78,0,0,0,349.25,271.37Z" style="fill:#455a64"></path><path d="M370.39,273.59a3.69,3.69,0,0,1-1.94.67,7,7,0,0,1-7.77-5,3.82,3.82,0,0,1-.19-2c.09,0,.11.78.53,1.93a7.2,7.2,0,0,0,7.39,4.78C369.63,273.81,370.36,273.51,370.39,273.59Z" style="fill:#455a64"></path><path d="M381.37,426.48a3.38,3.38,0,0,1-1,.12l-2.72.15-9,.43-9,.47-2.73.11a3.55,3.55,0,0,1-1,0,3.39,3.39,0,0,1,1-.18c.63-.08,1.56-.18,2.71-.28,2.29-.21,5.47-.44,9-.62s6.7-.26,9-.27c1.15,0,2.08,0,2.73,0A3.68,3.68,0,0,1,381.37,426.48Z" style="fill:#455a64"></path><path d="M335.72,281.71c.14,0,8,32.43,17.59,72.5s17.22,72.6,17.08,72.63-8-32.42-17.59-72.51S335.58,281.74,335.72,281.71Z" style="fill:#455a64"></path><path d="M361.31,283a1.19,1.19,0,0,1,.18.22l.49.65,1.86,2.55,6.74,9.41,9.95,14,5.85,8.29c2,2.88,4,6.11,4.53,9.91s-.58,7.47-1.73,10.76-2.41,6.49-3.57,9.5c-2.34,6-4.56,11.42-6.49,15.91s-3.56,8.1-4.7,10.58l-1.35,2.85-.36.73c-.09.16-.13.25-.14.24a.94.94,0,0,1,.09-.26c.08-.2.19-.45.32-.76l1.25-2.88c1.09-2.51,2.67-6.14,4.55-10.64s4.07-9.9,6.38-15.94c1.15-3,2.34-6.19,3.53-9.5s2.23-6.86,1.71-10.52-2.49-6.82-4.44-9.69l-5.82-8.3L370.28,296l-6.61-9.51-1.77-2.6c-.19-.28-.34-.5-.45-.68S361.3,283,361.31,283Z" style="fill:#455a64"></path><polygon points="412.13 203.61 434.46 187.31 435.56 189.06 413.37 205.56 412.13 203.61" style="fill:#263238"></polygon><path d="M417.65,203.11s3-7.8,3.67-9.46,1.81-4.55,2.24-4.61,2,.18-.05,5.14,2.41,1.93,2.41,1.93l4.3-3.08s3.4,10.16,1.47,13.22a49.88,49.88,0,0,1-5.1,6.46Z" style="fill:#ffbe9d"></path></g><g id="freepik--character-1--inject-16"><path d="M134.25,332.4c.29-1.69-.35-7.87-.35-7.87s-6.48-.69-6.87-7.11,0-21.24,0-21.24l11.8-5.77,13,9.83-2,32.13Z" style="fill:#b78876"></path><path d="M128.82,306.92a.82.82,0,0,0,1.64,0,.82.82,0,1,0-1.64,0Z" style="fill:#263238"></path><path d="M127.62,306.33c.1.1.71-.41,1.59-.46s1.55.38,1.65.26-.07-.25-.36-.45a2.16,2.16,0,0,0-1.32-.35,2.22,2.22,0,0,0-1.27.51C127.65,306.07,127.56,306.28,127.62,306.33Z" style="fill:#263238"></path><circle cx="139.21" cy="306.77" r="0.82" style="fill:#263238"></circle><path d="M137.18,306.17c.11.11.71-.41,1.6-.45s1.55.38,1.64.26-.06-.25-.35-.45a2.18,2.18,0,0,0-1.32-.35,2.16,2.16,0,0,0-1.27.51C137.21,305.92,137.13,306.13,137.18,306.17Z" style="fill:#263238"></path><path d="M134.14,313.56a5.59,5.59,0,0,0-1.45-.18c-.22,0-.44-.05-.49-.21a1.28,1.28,0,0,1,.13-.72l.6-1.83a32.05,32.05,0,0,0,1.35-4.78,35.35,35.35,0,0,0-1.69,4.67c-.21.64-.4,1.26-.58,1.84a1.38,1.38,0,0,0-.09.93.55.55,0,0,0,.38.32,1.29,1.29,0,0,0,.38,0A6.06,6.06,0,0,0,134.14,313.56Z" style="fill:#263238"></path><path d="M137.07,314.4a9.77,9.77,0,0,1-4.29,1.47,2.46,2.46,0,0,0,2.94.83C137.61,315.91,137.07,314.4,137.07,314.4Z" style="fill:#fff"></path><path d="M133.9,324.53a16,16,0,0,0,8.51-2.88s-1.93,4.72-8.37,4.46Z" style="fill:#a36957"></path><path d="M160.34,305s2.62,14.81-9.89,17.48l.37-17.84Z" style="fill:#263238"></path><path d="M159.93,301.72a22.52,22.52,0,0,0-4.28-8.68c1.8.75,3,1.5,3.25,1.26s-.21-.69-1-1.36a10.67,10.67,0,0,0-3.46-1.89l-.59-.16a6.88,6.88,0,0,0,2.22-1.43,5.18,5.18,0,0,0,1.25-5.75,4.76,4.76,0,0,0-4.69-2.45,6,6,0,0,0-4.44,3.09,7.12,7.12,0,0,0-.53,1.24,17.57,17.57,0,0,1,.22-2.12c.4-2.47,1.32-4.32,1.17-4.4a8.72,8.72,0,0,0-1.71,4.31c0,.24-.06.47-.09.7a14.41,14.41,0,0,0-.72-1.87c-.61-1.29-1.19-2-1.36-1.89-.35.17.79,2.88,1.26,6.54a13,13,0,0,0-3.48-.65c-2.18,0-5.8-1-10.92,3.11a15.66,15.66,0,0,0-4.41,4.23,15.83,15.83,0,0,0-2.75,8.38,13.85,13.85,0,0,0,.17,2.69,3,3,0,0,0,.25.95c.1,0-.19-1.39,0-3.62a16.06,16.06,0,0,1,1.09-4.82,12.2,12.2,0,0,0,.48,8.07l11.45-1.79c-.74-2.51-.2-6.49.15-8.44,2,9.35,10.05,13.84,10.05,13.84l12.05-1.89C160.39,305.83,160.19,302.7,159.93,301.72Z" style="fill:#263238"></path><path d="M187.65,444.94c.37.18,29.91,6,28.82,2s-28.56-10.28-28.56-10.28Z" style="fill:#407BFF"></path><path d="M201.08,442.33c.14,0,.35.68.34,1.57s-.22,1.59-.36,1.57-.17-.72-.16-1.57S200.94,442.34,201.08,442.33Z" style="fill:#263238"></path><path d="M199.51,441.79c.13,0,.39.79.29,1.83s-.47,1.8-.6,1.75,0-.83.08-1.8S199.36,441.81,199.51,441.79Z" style="fill:#263238"></path><path d="M197.6,441.63c.14,0,.34.78.36,1.78s-.15,1.8-.29,1.79-.21-.8-.23-1.78S197.46,441.64,197.6,441.63Z" style="fill:#263238"></path><path d="M194,438.74a1.46,1.46,0,0,1,.46.05c.3,0,.74.14,1.3.27,1.13.24,2.76.63,4.75,1.18s4.35,1.24,6.93,2.12c1.29.44,2.66.89,4,1.48a13,13,0,0,1,3.94,2.49,1.6,1.6,0,0,1,.43.53.67.67,0,0,1-.25.83,2.43,2.43,0,0,1-1.25.27c-.77.06-1.53.09-2.27.11-1.49,0-2.93,0-4.3-.11-2.73-.17-5.17-.51-7.21-.83s-3.68-.64-4.81-.87l-1.3-.27a1.6,1.6,0,0,1-.45-.13,11.37,11.37,0,0,1,1.78.2l4.83.7c2,.28,4.48.58,7.19.73,1.36.07,2.78.11,4.26.07.73,0,1.49-.05,2.24-.11a2.1,2.1,0,0,0,1-.19c.09-.07.1-.11.07-.2a1.49,1.49,0,0,0-.31-.36,12.63,12.63,0,0,0-3.79-2.39c-1.34-.58-2.7-1-4-1.5-2.57-.89-4.91-1.63-6.88-2.22s-3.59-1-4.7-1.34A13.27,13.27,0,0,1,194,438.74Z" style="fill:#263238"></path><path d="M209.69,443.13c.14.05-.15,1.17,0,2.55s.53,2.45.39,2.52a4.75,4.75,0,0,1-.35-5.07Z" style="fill:#263238"></path><path d="M90,439.09c-.41,0-30.22,4.11-27.91,7.46s30.35.41,30.35.41Z" style="fill:#407BFF"></path><path d="M78.1,445.94c-.12.06-.55-.54-.83-1.38S77,443,77.1,443s.39.63.66,1.44S78.23,445.87,78.1,445.94Z" style="fill:#263238"></path><path d="M79.77,445.93c-.12.07-.63-.62-.88-1.63s-.14-1.86,0-1.86.27.79.51,1.73S79.9,445.86,79.77,445.93Z" style="fill:#263238"></path><path d="M81.62,445.46c-.13.06-.57-.63-.92-1.57s-.45-1.75-.31-1.79.46.7.8,1.61S81.75,445.4,81.62,445.46Z" style="fill:#263238"></path><path d="M86,447a1.52,1.52,0,0,1-.45.1l-1.32.17c-1.15.14-2.81.3-4.87.43s-4.52.24-7.25.26c-1.37,0-2.8,0-4.3-.09a12.56,12.56,0,0,1-4.53-1.06,1.67,1.67,0,0,1-.59-.36.68.68,0,0,1,0-.86,2.35,2.35,0,0,1,1.09-.67c.71-.31,1.41-.58,2.11-.85,1.4-.51,2.78-.93,4.1-1.3,2.64-.73,5.06-1.2,7.09-1.56s3.69-.6,4.83-.75l1.32-.17a1.46,1.46,0,0,1,.46,0,11.4,11.4,0,0,1-1.75.39l-4.79.91c-2,.41-4.42.92-7,1.66-1.31.38-2.67.8-4,1.32-.69.27-1.39.54-2.09.84a2.1,2.1,0,0,0-.87.5c-.06.1-.06.13,0,.21a1.41,1.41,0,0,0,.42.24,12.33,12.33,0,0,0,4.35,1c1.46.12,2.9.11,4.26.12,2.72,0,5.17-.06,7.23-.14s3.72-.2,4.87-.27A12.64,12.64,0,0,1,86,447Z" style="fill:#263238"></path><path d="M69.71,448c-.16,0-.24-1.15-.8-2.42s-1.3-2.15-1.19-2.25,1.09.65,1.67,2A3.62,3.62,0,0,1,69.71,448Z" style="fill:#263238"></path><path d="M182.43,402.9H167.26l-56,1.45-16-2.07c-2.49-.55-4.13-.78-4.66-.61a13.61,13.61,0,0,0-5.47,4.16c-6.1,7.28-2.26,18.5,6.92,21l8.62,2.34-18.86,6.06,6.37,18.08s28.16-6.09,55.47-12.52l43.7,11.82,6.3-20.29-7.41-2.41c4.65-1.42,7.59-2.54,8-3.22,2.75-4.26,7.62-24.07-11.88-23.77" style="fill:#455a64"></path><polygon points="186 429.98 153.52 443.43 143.7 440.77 186 429.98" style="opacity:0.2"></polygon><polygon points="100.81 404.42 142.39 416.33 174.06 405.53 100.81 404.42" style="opacity:0.2"></polygon><path d="M94.89,452a14.38,14.38,0,0,1-1.33-2.61c-.74-1.65-1.7-4-2.64-6.56s-1.71-5-2.2-6.72a14.88,14.88,0,0,1-.67-2.85,17.89,17.89,0,0,1,1,2.74c.58,1.71,1.39,4.07,2.33,6.65s1.85,4.91,2.5,6.59A19.26,19.26,0,0,1,94.89,452Z" style="fill:#263238"></path><path d="M195.13,409.64a1,1,0,0,1-.26.11l-.78.29-3,1.06L180,414.87c-9.41,3.14-22.43,7.39-36.86,11.92s-27.55,8.48-37.06,11.28l-11.28,3.26-3.07.85-.81.21a1.1,1.1,0,0,1-.28.05l.27-.1.79-.26,3-.95,11.23-3.42c9.49-2.88,22.58-6.89,37-11.42s27.46-8.72,36.89-11.77L191,410.91l3.05-1,.79-.24A1,1,0,0,1,195.13,409.64Z" style="fill:#263238"></path><path d="M164.85,408.91a2.9,2.9,0,0,1-.64.27l-1.86.68c-1.62.58-4,1.4-6.9,2.39-5.84,2-13.93,4.64-22.88,7.51s-17.09,5.4-23,7.18c-3,.89-5.35,1.59-7,2.06l-1.91.53a5.07,5.07,0,0,1-.68.15,3,3,0,0,1,.65-.25l1.88-.62,7-2.22,22.94-7.32,22.92-7.37,6.95-2.23,1.9-.59A3.06,3.06,0,0,1,164.85,408.91Z" style="fill:#263238"></path><path d="M142.18,416.26c0,.14-9.33-2.4-20.76-5.67s-20.65-6-20.61-6.17,9.33,2.4,20.75,5.67S142.22,416.12,142.18,416.26Z" style="fill:#263238"></path><path d="M187.59,430.94a104.61,104.61,0,0,1-3.58,9.95c-2.11,5.44-3.93,9.8-4.06,9.75a102.85,102.85,0,0,1,3.58-9.94C185.64,435.26,187.46,430.89,187.59,430.94Z" style="fill:#263238"></path><path d="M183.69,439.32a71.46,71.46,0,0,1-8.17-1.91,67.75,67.75,0,0,1-8-2.42,70.41,70.41,0,0,1,8.17,1.91A67.75,67.75,0,0,1,183.69,439.32Z" style="fill:#263238"></path><path d="M121.49,422.74a10.23,10.23,0,0,1-1.55-.31l-4.18-1c-3.52-.9-8.39-2.12-13.7-3.72a109,109,0,0,1-13.35-4.89c-1.65-.76-3-1.42-3.86-1.91a8.16,8.16,0,0,1-1.36-.81,10.17,10.17,0,0,1,1.45.63c.92.43,2.25,1,3.92,1.75a133.07,133.07,0,0,0,13.35,4.73c5.3,1.6,10.15,2.87,13.65,3.86l4.13,1.19A7.86,7.86,0,0,1,121.49,422.74Z" style="fill:#263238"></path><path d="M152.23,331.51H151l-.18-4.26-16.89,1s.17,2,.16,3.39c-10.4,1-27.07,6.34-27.47,29.75l13.34.31c-1.13,10.74-1,17.15-2.09,21.18-1.86,6.66-7.75,20.72-6.57,21.43s55.92,1.72,58.53.3-2.14-19.77-3.33-24.75c-.75-3.18-.91-10.46-.93-16.09l15.32-.69S182,331.42,152.23,331.51Z" style="fill:#407BFF"></path><path d="M150.91,331.34a10.56,10.56,0,0,1-2.48.42c-1.55.18-3.69.35-6.06.4s-4.51,0-6.06-.14a11.39,11.39,0,0,1-2.5-.32,12.79,12.79,0,0,1,2.51-.05c1.55,0,3.68,0,6,0s4.49-.16,6-.24A13.49,13.49,0,0,1,150.91,331.34Z" style="fill:#263238"></path><path d="M137,328.11c.15,0,.26.82.26,1.83s-.11,1.84-.26,1.84-.26-.82-.26-1.84S136.81,328.11,137,328.11Z" style="fill:#263238"></path><path d="M141.47,327.79c.14,0,.28.9.31,2a4.32,4.32,0,0,1-.2,2c-.15,0-.29-.9-.32-2A4.16,4.16,0,0,1,141.47,327.79Z" style="fill:#263238"></path><path d="M146.13,327.63c.14,0,.34.88.36,2s-.13,2-.28,2a4.88,4.88,0,0,1-.24-2C146,328.55,146,327.64,146.13,327.63Z" style="fill:#263238"></path><path d="M149.51,327.47c.15,0,.25.88.39,1.95s.25,1.95.11,2-.49-.81-.62-1.93S149.37,327.46,149.51,327.47Z" style="fill:#263238"></path><path d="M122.07,361.45a24.71,24.71,0,0,1-.3-5,23.35,23.35,0,0,1,.22-5,25.44,25.44,0,0,1,.3,5A25.14,25.14,0,0,1,122.07,361.45Z" style="fill:#263238"></path><path d="M165,363.12a29.68,29.68,0,0,1-.72-5.4,27.9,27.9,0,0,1-.19-5.45,58.16,58.16,0,0,1,.91,10.85Z" style="fill:#263238"></path><path d="M122.07,361.45a11.38,11.38,0,0,1-2.3.07l-5.51,0-5.52,0a11.24,11.24,0,0,1-2.29-.07,9.21,9.21,0,0,1,2.28-.29c1.41-.11,3.37-.19,5.53-.18s4.12.08,5.53.19A9.7,9.7,0,0,1,122.07,361.45Z" style="fill:#263238"></path><path d="M180.86,363.12a62.72,62.72,0,0,1-8.15.26,62.81,62.81,0,0,1-8.16-.26,65,65,0,0,1,8.16-.26A64.92,64.92,0,0,1,180.86,363.12Z" style="fill:#263238"></path><path d="M180.19,363.25s4,37.33-7.44,41-34-13.71-34-13.71l6.5-13.16s15,10.42,18.24,8.07,1.55-22.2,1.55-22.2Z" style="fill:#b78876"></path><path d="M106.81,361.45s-4.07,36.95,7.36,40.63,34-13.72,34-13.72l-6.51-13.16s-15.09,9.65-18.22,7.21c-1.81-1.42-1.86-20.77-1.86-20.77C116.26,361.41,111.33,361.18,106.81,361.45Z" style="fill:#b78876"></path><path d="M173.07,369.15l-7.59,37.2s-46.64-.36-47.12-.5-5-36.7-5-36.7Z" style="fill:#263238"></path><path d="M139.57,388a2.8,2.8,0,1,0,2.8-2.61A2.72,2.72,0,0,0,139.57,388Z" style="fill:#fff"></path><path d="M149.37,306.38a3,3,0,0,1,2.84-.17,2.93,2.93,0,0,1,1.06,1.86,3.87,3.87,0,0,1-.85,3.39,2.64,2.64,0,0,1-3.3.45" style="fill:#b78876"></path><path d="M150.57,310.89c0-.08.32-.13.69-.41A1.63,1.63,0,0,0,152,309a1.66,1.66,0,0,0-.95-1.34c-.42-.2-.74-.19-.75-.27s.32-.23.88-.09a1.91,1.91,0,0,1,.33,3.53C150.93,311.05,150.57,311,150.57,310.89Z" style="fill:#a36957"></path></g></svg>